<svg width="15" height="15" viewBox="0 0 15 15" fill="none" xmlns="http://www.w3.org/2000/svg">
<path d="M7.5 0.300003C3.5235 0.300003 0.300003 3.5235 0.300003 7.5C0.300003 11.4765 3.5235 14.7 7.5 14.7C11.4765 14.7 14.7 11.4765 14.7 7.5C14.7 3.5235 11.4765 0.300003 7.5 0.300003ZM5.7375 10.4843H4.2795V5.79225H5.7375V10.4843ZM4.9995 5.21625C4.539 5.21625 4.24125 4.89 4.24125 4.4865C4.24125 4.07475 4.548 3.75825 5.01825 3.75825C5.4885 3.75825 5.7765 4.07475 5.7855 4.4865C5.7855 4.89 5.4885 5.21625 4.9995 5.21625ZM11.0625 10.4843H9.6045V7.884C9.6045 7.27875 9.393 6.86775 8.86575 6.86775C8.463 6.86775 8.22375 7.146 8.118 7.41375C8.079 7.509 8.06925 7.644 8.06925 7.77825V10.4835H6.6105V7.2885C6.6105 6.70275 6.59175 6.213 6.57225 5.7915H7.839L7.90575 6.44325H7.935C8.127 6.13725 8.59725 5.68575 9.384 5.68575C10.3433 5.68575 11.0625 6.3285 11.0625 7.71V10.4843V10.4843Z" fill="white"/>
</svg>
